<svg width="21" height="17" viewBox="0 0 21 17" fill="none" xmlns="http://www.w3.org/2000/svg">
<path fill-rule="evenodd" clip-rule="evenodd" d="M16.0735 6.34518C14.9394 5.08331 14.1674 3.41889 13.4551 1.08397L14.2708 0.668457C14.9486 2.89012 15.6363 4.31897 16.5884 5.37832C17.5506 6.44893 18.8289 7.19455 20.7587 7.92194L20.5976 9.14032C20.47 9.09221 20.3446 9.04384 20.2214 8.9951L20.232 9.18052C18.3425 9.5274 17.1696 10.1074 16.355 11.14C15.542 12.1705 15.0136 13.7438 14.5669 16.3316L13.7093 16.0807C14.169 13.4172 14.7551 11.5145 15.7872 10.2061C16.1902 9.69533 16.6501 9.2892 17.1767 8.9627H0V7.86914H17.9142C17.2143 7.43485 16.6087 6.9407 16.0735 6.34518Z" fill="orange"/>
</svg>
